{"title":"The Peacemaker(1997)MPEG-4[DaScubaDude]","uid":15309478,"size":1364387587,"categoryP":"video","categoryS":"movies","magnet":"?xt=urn:btih:6423d842fe8d620c511e2812966f1ab05554aaf8&amp;dn=The+Peacemaker%281997%29MPEG-4%5BDaScubaDude%5D&amp;tr=udp%3A%2F%2Ftracker.leechers-paradise.org%3A6969&amp;tr=udp%3A%2F%2Fzer0day.ch%3A1337&amp;tr=udp%3A%2F%2Fopen.demonii.com%3A1337&amp;tr=udp%3A%2F%2Ftracker.coppersurfer.tk%3A6969&amp;tr=udp%3A%2F%2Fexodus.desync.com%3A6969","seeders":0,"leechers":1,"uploader":"dascuba","files":1,"time":1468567919,"description":"The Peacemaker (1997)\r\nR | 2h 4min | Action, Thriller | 26 September 1997 (USA)\r\nA US Army colonel and a civilian woman supervising him must track down stolen Russian nuclear weapons before they're used by terrorists.\r\nDirector: Mimi Leder\r\nWriters: Leslie Cockburn (article) (as Leslie Redlich Cockburn), Andrew Cockburn (article) | \r\nStars: George Clooney, Nicole Kidman, Marcel Iures |\r\n\r\nGeneral\r\nComplete name                            : The PeacemakerTHE_PEACEMAKER_Title1.mp4\r\nFormat                                   : MPEG-4\r\nFormat profile                           : Base Media\r\nCodec ID                                 : isom (isom/iso2/avc1/mp41)\r\nFile size                                : 1.27 GiB\r\nDuration                                 : 2h 3mn\r\nOverall bit rate                         : 1 469 Kbps\r\nMovie name                               : THE_PEACEMAKER\r\nGenre                                    : Action\r\nWriting application                      : Lavf54.6.100\r\n\r\nVideo\r\nID                                       : 1\r\nFormat                                   : AVC\r\nFormat/Info                              : Advanced Video Codec\r\nFormat profile                           :   \r\nFormat settings, CABAC                   : No\r\nFormat settings, ReFrames                : 6 frames\r\nCodec ID                                 : avc1\r\nCodec ID/Info                            : Advanced Video Coding\r\nDuration                                 : 2h 3mn\r\nBit rate                                 : 1 202 Kbps\r\nWidth                                    : 720 pixels\r\nHeight                                   : 404 pixels\r\nDisplay aspect ratio                     : 16:9\r\nFrame rate mode                          : Constant\r\nFrame rate                               : 29.970 (30000/1001) fps\r\nColor space                              : YUV\r\nChroma subsampling                       : 4:2:0\r\nBit depth                                : 8 bits\r\nScan type                                : Progressive\r\nBits/(Pixel*Frame)                       : 0.138\r\nStream size                              : 1.04 GiB (82%)\r\n\r\nAudio\r\nID                                       : 2\r\nFormat                                   : AAC\r\nFormat/Info                              : Advanced Audio Codec\r\nFormat profile                           : LC\r\nCodec ID                                 : 40\r\nDuration                                 : 2h 3mn\r\nBit rate mode                            : Constant\r\nBit rate                                 : 265 Kbps\r\nChannel(s)                               : 2 channels\r\nChannel(s)_Original                      : 6 channels\r\nChannel positions                        : Front: L C R, Side: L R, LFE\r\nSampling rate                            : 44.1 KHz\r\nFrame rate                               : 43.066 fps (1024 spf)\r\nCompression mode                         : Lossy\r\nStream size                              : 230 MiB (18%)\r\nDefault                                  : Yes\r\nAlternate group                          : 1","torrent":{"xt":"urn:btih:6423d842fe8d620c511e2812966f1ab05554aaf8","amp;dn":"The+Peacemaker%281997%29MPEG-4%5BDaScubaDude%5D","amp;tr":["udp%3A%2F%2Ftracker.leechers-paradise.org%3A6969","udp%3A%2F%2Fzer0day.ch%3A1337","udp%3A%2F%2Fopen.demonii.com%3A1337","udp%3A%2F%2Ftracker.coppersurfer.tk%3A6969","udp%3A%2F%2Fexodus.desync.com%3A6969"],"infoHash":"6423d842fe8d620c511e2812966f1ab05554aaf8","infoHashBuffer":{"type":"Buffer","data":[100,35,216,66,254,141,98,12,81,30,40,18,150,111,26,176,85,84,170,248]},"announce":[],"urlList":[]}}